<svg width="18.000000" height="18.000000" viewBox="0 0 18 18" fill="none" xmlns="http://www.w3.org/2000/svg" xmlns:xlink="http://www.w3.org/1999/xlink">
	<desc>
			Created with Pixso.
	</desc>
	<defs/>
	<path id="Vector" d="M1 0L17 0C17.2656 0 17.5195 0.105347 17.707 0.292847C17.8945 0.480469 18 0.734741 18 1L18 17C18 17.2653 17.8945 17.5195 17.707 17.7072C17.5195 17.8947 17.2656 18 17 18L1 18C0.734375 18 0.480469 17.8947 0.292969 17.7072C0.105469 17.5195 0 17.2653 0 17L0 1C0 0.734741 0.105469 0.480469 0.292969 0.292847C0.480469 0.105347 0.734375 0 1 0ZM14.2998 12.9399C14.2002 12.89 14.1504 12.74 14.1504 12.639L14.1504 5.00598C14.1504 4.90601 14.2002 4.75598 14.2998 4.65503L15.2549 3.55005L15.2549 3.5L11.8398 3.5L9.28027 9.97803L6.36621 3.5L2.85156 3.5L2.85156 3.55005L3.75488 4.80603C3.95605 5.00598 4.00586 5.30798 4.00586 5.55896L4.00586 11.082C4.05566 11.384 4.00586 11.735 3.85645 12.036L2.5 13.894L2.5 13.944L6.11621 13.944L6.11621 13.894L4.75977 12.087C4.61035 11.785 4.55859 11.484 4.61035 11.1331L4.61035 6.10999C4.66016 6.20996 4.70996 6.20996 4.75977 6.41101L8.17383 14.0439L8.22363 14.0439L11.54 5.76001C11.4902 6.06006 11.4902 6.41199 11.4902 6.66394L11.4902 12.589C11.4902 12.739 11.4404 12.839 11.3398 12.9399L10.335 13.894L10.335 13.944L15.2559 13.944L15.2559 13.894L14.3018 12.9399L14.2998 12.9399Z" fill="#FFFFFF" fill-opacity="1.000000" fill-rule="nonzero"/>
</svg>
