<svg width="16.666504" height="16.666748" viewBox="0 0 16.6665 16.6667" fill="none" xmlns="http://www.w3.org/2000/svg" xmlns:xlink="http://www.w3.org/1999/xlink">
	<desc>
			Created with Pixso.
	</desc>
	<defs/>
	<path id="Vector" d="M8.3335 16.6667C3.73096 16.6667 0 12.9358 0 8.33325C0 3.73071 3.73096 0 8.3335 0C12.936 0 16.6665 3.73071 16.6665 8.33325C16.6665 12.9358 12.936 16.6667 8.3335 16.6667ZM7.5 10.8333L7.5 12.5L9.1665 12.5L9.1665 10.8333L7.5 10.8333ZM9.1665 9.4624C9.83643 9.26074 10.4111 8.82495 10.7866 8.23486C11.1621 7.64453 11.3135 6.93921 11.2124 6.24707C11.1113 5.55493 10.7651 4.92212 10.2368 4.46362C9.7085 4.00537 9.03271 3.7522 8.3335 3.75C7.65918 3.75 7.00537 3.9834 6.48389 4.41089C5.9624 4.83813 5.60498 5.43311 5.47266 6.09424L7.10742 6.42163C7.15381 6.18945 7.26514 5.97534 7.42871 5.80396C7.5918 5.63281 7.80078 5.51123 8.03027 5.45386C8.26025 5.39648 8.50146 5.40552 8.72607 5.47998C8.95068 5.55444 9.1499 5.69092 9.2998 5.87402C9.4502 6.05713 9.54492 6.27905 9.57373 6.51392C9.60303 6.74902 9.56445 6.9873 9.46338 7.20142C9.36182 7.41528 9.20215 7.59619 9.00195 7.72266C8.80176 7.84937 8.56982 7.91675 8.3335 7.91675C8.1123 7.91675 7.90039 8.00439 7.74414 8.16064C7.58789 8.31714 7.5 8.52905 7.5 8.75L7.5 10L9.1665 10L9.1665 9.4624Z" fill="#FFFFFF" fill-opacity="0.300000" fill-rule="nonzero"/>
</svg>
